<svg width="222" height="63" viewBox="0 0 222 63" fill="none" xmlns="http://www.w3.org/2000/svg">
<rect x="0.895996" y="0.390015" width="62.2595" height="62.2595" rx="5.15394" fill="#4786FF"/>
<path d="M26.6781 16.4747C35.0904 18.3766 39.6154 24.1249 39.5831 32.6868C39.5654 37.3845 39.58 42.0824 39.58 46.8622C37.5597 46.8622 35.6541 46.8622 33.5473 46.8622C33.5473 45.7145 33.5473 44.5759 33.5472 43.4373C33.5469 39.4378 33.5881 35.4378 33.5353 31.4391C33.4753 26.8904 29.9787 22.965 25.6262 22.4529C20.7653 21.8809 16.5166 24.6634 15.3138 29.2066C14.1093 33.7563 16.3508 38.3377 20.685 40.1619C21.1334 40.3506 21.6096 40.4731 22.2328 40.6791C22.2328 37.6073 22.2328 34.7005 22.2328 31.7058C24.0483 31.7058 25.7411 31.7058 27.5102 31.7058C27.5102 36.7249 27.5102 41.7233 27.51 46.7218C18.3863 48.2178 11.1778 42.7711 9.33902 34.9959C7.41957 26.8796 12.6537 18.4923 20.8184 16.7494C22.664 16.3554 24.6325 16.5372 26.6781 16.4747Z" fill="white"/>
<path d="M54.8949 44.3271C54.8949 45.2253 54.8949 45.9781 54.8949 46.8409C52.8914 46.8409 50.9535 46.8409 48.8464 46.8409C48.8464 45.8079 48.844 44.8114 48.8468 43.8149C48.8584 39.6649 48.8779 35.5149 48.8826 31.3648C48.8898 24.976 44.5846 19.126 38.3622 17.0543C37.9907 16.9306 37.6187 16.8085 37.1357 16.6489C44.5493 14.8417 52.743 20.2869 54.5094 28.123C54.7738 29.2959 54.8767 30.5261 54.8888 31.7314C54.9304 35.8812 54.8987 40.0317 54.8949 44.3271Z" fill="white"/>
<path d="M95.4646 17.648C94.993 16.7792 94.3104 16.1214 93.4168 15.6746C92.5481 15.203 91.5179 14.9672 90.3265 14.9672C88.2663 14.9672 86.6156 15.6498 85.3745 17.015C84.1334 18.3554 83.5129 20.155 83.5129 22.4138C83.5129 24.8215 84.1582 26.708 85.449 28.0732C86.7645 29.4136 88.5641 30.0838 90.8478 30.0838C92.4115 30.0838 93.7271 29.6866 94.7944 28.8923C95.8866 28.098 96.6809 26.9562 97.1773 25.4669H89.0978V20.7755H102.948V26.6956C102.477 28.2842 101.67 29.7611 100.528 31.1263C99.4113 32.4915 97.9841 33.5961 96.2465 34.44C94.509 35.284 92.5481 35.7059 90.3637 35.7059C87.7822 35.7059 85.4738 35.1474 83.4384 34.0305C81.4278 32.8887 79.8516 31.3125 78.7098 29.3019C77.5928 27.2913 77.0343 24.9953 77.0343 22.4138C77.0343 19.8323 77.5928 17.5363 78.7098 15.5257C79.8516 13.4903 81.4278 11.9141 83.4384 10.7971C85.449 9.65532 87.745 9.08442 90.3265 9.08442C93.4541 9.08442 96.0852 9.84149 98.2199 11.3556C100.379 12.8698 101.807 14.9672 102.502 17.648H95.4646ZM109.677 12.5843C108.56 12.5843 107.642 12.2616 106.922 11.6163C106.227 10.9461 105.879 10.1269 105.879 9.15889C105.879 8.16601 106.227 7.34688 106.922 6.70151C107.642 6.03132 108.56 5.69622 109.677 5.69622C110.769 5.69622 111.663 6.03132 112.358 6.70151C113.078 7.34688 113.438 8.16601 113.438 9.15889C113.438 10.1269 113.078 10.9461 112.358 11.6163C111.663 12.2616 110.769 12.5843 109.677 12.5843ZM112.842 14.7438V35.5198H106.475V14.7438H112.842ZM123.823 18.2065C124.567 17.0647 125.498 16.1711 126.615 15.5257C127.732 14.8555 128.973 14.5204 130.338 14.5204V21.2596H128.589C127 21.2596 125.808 21.6071 125.014 22.3021C124.22 22.9723 123.823 24.1637 123.823 25.8765V35.5198H117.456V14.7438H123.823V18.2065ZM159.892 14.5204C162.473 14.5204 164.521 15.3023 166.035 16.8661C167.574 18.4299 168.343 20.6018 168.343 23.3819V35.5198H162.014V24.2382C162.014 22.8978 161.654 21.8677 160.934 21.1479C160.239 20.4032 159.271 20.0309 158.03 20.0309C156.789 20.0309 155.808 20.4032 155.088 21.1479C154.393 21.8677 154.046 22.8978 154.046 24.2382V35.5198H147.716V24.2382C147.716 22.8978 147.356 21.8677 146.637 21.1479C145.942 20.4032 144.974 20.0309 143.732 20.0309C142.491 20.0309 141.511 20.4032 140.791 21.1479C140.096 21.8677 139.749 22.8978 139.749 24.2382V35.5198H133.382V14.7438H139.749V17.3501C140.394 16.4814 141.238 15.7988 142.28 15.3023C143.323 14.7811 144.502 14.5204 145.817 14.5204C147.381 14.5204 148.771 14.8555 149.988 15.5257C151.229 16.1959 152.197 17.1515 152.892 18.3926C153.612 17.2508 154.592 16.32 155.833 15.6002C157.074 14.8803 158.427 14.5204 159.892 14.5204ZM171.53 25.0946C171.53 22.9599 171.927 21.0858 172.722 19.4724C173.541 17.859 174.645 16.6179 176.035 15.7491C177.425 14.8803 178.977 14.446 180.69 14.446C182.154 14.446 183.432 14.7438 184.525 15.3395C185.642 15.9353 186.498 16.7172 187.094 17.6852V14.7438H193.46V35.5198H187.094V32.5784C186.473 33.5464 185.604 34.3283 184.487 34.924C183.395 35.5198 182.117 35.8176 180.652 35.8176C178.964 35.8176 177.425 35.3833 176.035 34.5145C174.645 33.6209 173.541 32.3674 172.722 30.754C171.927 29.1157 171.53 27.2293 171.53 25.0946ZM187.094 25.1318C187.094 23.5432 186.647 22.2897 185.753 21.3713C184.884 20.4529 183.817 19.9937 182.551 19.9937C181.285 19.9937 180.206 20.4529 179.312 21.3713C178.443 22.2649 178.009 23.506 178.009 25.0946C178.009 26.6832 178.443 27.9491 179.312 28.8923C180.206 29.8107 181.285 30.2699 182.551 30.2699C183.817 30.2699 184.884 29.8107 185.753 28.8923C186.647 27.9739 187.094 26.7204 187.094 25.1318ZM210.726 14.5204C213.158 14.5204 215.094 15.3147 216.534 16.9033C217.999 18.4671 218.731 20.6266 218.731 23.3819V35.5198H212.401V24.2382C212.401 22.8482 212.041 21.7684 211.321 20.9989C210.602 20.2295 209.634 19.8447 208.417 19.8447C207.201 19.8447 206.233 20.2295 205.513 20.9989C204.793 21.7684 204.433 22.8482 204.433 24.2382V35.5198H198.067V14.7438H204.433V17.4991C205.079 16.5806 205.948 15.8608 207.04 15.3395C208.132 14.7935 209.361 14.5204 210.726 14.5204Z" fill="#111111"/>
<path d="M87.4227 48.6711V49.9417H85.3312V56.5198H83.757V49.9417H81.6655V48.6711H87.4227ZM94.6433 49.9417V51.9095H97.2858V53.1577H94.6433V55.2379H97.6231V56.5198H93.0691V48.6599H97.6231V49.9417H94.6433ZM103.169 52.5842C103.169 51.8121 103.342 51.1224 103.686 50.5152C104.039 49.9005 104.515 49.4245 105.115 49.0872C105.722 48.7423 106.4 48.5699 107.15 48.5699C108.027 48.5699 108.795 48.7948 109.455 49.2446C110.115 49.6944 110.576 50.3166 110.838 51.1112H109.028C108.848 50.7363 108.593 50.4552 108.263 50.2678C107.941 50.0804 107.566 49.9867 107.139 49.9867C106.681 49.9867 106.273 50.0954 105.913 50.3128C105.561 50.5227 105.283 50.8226 105.081 51.2124C104.886 51.6022 104.788 52.0595 104.788 52.5842C104.788 53.1014 104.886 53.5587 105.081 53.956C105.283 54.3458 105.561 54.6494 105.913 54.8668C106.273 55.0767 106.681 55.1817 107.139 55.1817C107.566 55.1817 107.941 55.088 108.263 54.9006C108.593 54.7057 108.848 54.4208 109.028 54.046H110.838C110.576 54.8481 110.115 55.474 109.455 55.9238C108.803 56.3661 108.034 56.5872 107.15 56.5872C106.4 56.5872 105.722 56.4186 105.115 56.0812C104.515 55.7364 104.039 55.2604 103.686 54.6532C103.342 54.046 103.169 53.3563 103.169 52.5842ZM123.191 48.6711V56.5198H121.617V53.1802H118.255V56.5198H116.68V48.6711H118.255V51.8983H121.617V48.6711H123.191ZM135.951 56.5198H134.377L130.812 51.1337V56.5198H129.238V48.6599H130.812L134.377 54.0572V48.6599H135.951V56.5198ZM145.648 56.5985C144.913 56.5985 144.239 56.4261 143.624 56.0812C143.009 55.7364 142.522 55.2604 142.162 54.6532C141.802 54.0385 141.622 53.3451 141.622 52.573C141.622 51.8083 141.802 51.1224 142.162 50.5152C142.522 49.9005 143.009 49.4207 143.624 49.0759C144.239 48.7311 144.913 48.5587 145.648 48.5587C146.39 48.5587 147.065 48.7311 147.672 49.0759C148.287 49.4207 148.77 49.9005 149.122 50.5152C149.482 51.1224 149.662 51.8083 149.662 52.573C149.662 53.3451 149.482 54.0385 149.122 54.6532C148.77 55.2604 148.287 55.7364 147.672 56.0812C147.057 56.4261 146.383 56.5985 145.648 56.5985ZM145.648 55.1929C146.12 55.1929 146.536 55.088 146.896 54.8781C147.256 54.6607 147.537 54.3533 147.739 53.956C147.942 53.5587 148.043 53.0977 148.043 52.573C148.043 52.0482 147.942 51.5909 147.739 51.2011C147.537 50.8038 147.256 50.5002 146.896 50.2903C146.536 50.0804 146.12 49.9755 145.648 49.9755C145.176 49.9755 144.756 50.0804 144.389 50.2903C144.029 50.5002 143.748 50.8038 143.545 51.2011C143.343 51.5909 143.242 52.0482 143.242 52.573C143.242 53.0977 143.343 53.5587 143.545 53.956C143.748 54.3533 144.029 54.6607 144.389 54.8781C144.756 55.088 145.176 55.1929 145.648 55.1929ZM156.905 55.2716H159.492V56.5198H155.331V48.6711H156.905V55.2716ZM168.633 56.5985C167.899 56.5985 167.224 56.4261 166.609 56.0812C165.995 55.7364 165.507 55.2604 165.147 54.6532C164.788 54.0385 164.608 53.3451 164.608 52.573C164.608 51.8083 164.788 51.1224 165.147 50.5152C165.507 49.9005 165.995 49.4207 166.609 49.0759C167.224 48.7311 167.899 48.5587 168.633 48.5587C169.375 48.5587 170.05 48.7311 170.657 49.0759C171.272 49.4207 171.755 49.9005 172.108 50.5152C172.468 51.1224 172.648 51.8083 172.648 52.573C172.648 53.3451 172.468 54.0385 172.108 54.6532C171.755 55.2604 171.272 55.7364 170.657 56.0812C170.043 56.4261 169.368 56.5985 168.633 56.5985ZM168.633 55.1929C169.106 55.1929 169.522 55.088 169.881 54.8781C170.241 54.6607 170.522 54.3533 170.725 53.956C170.927 53.5587 171.028 53.0977 171.028 52.573C171.028 52.0482 170.927 51.5909 170.725 51.2011C170.522 50.8038 170.241 50.5002 169.881 50.2903C169.522 50.0804 169.106 49.9755 168.633 49.9755C168.161 49.9755 167.741 50.0804 167.374 50.2903C167.014 50.5002 166.733 50.8038 166.531 51.2011C166.328 51.5909 166.227 52.0482 166.227 52.573C166.227 53.0977 166.328 53.5587 166.531 53.956C166.733 54.3533 167.014 54.6607 167.374 54.8781C167.741 55.088 168.161 55.1929 168.633 55.1929ZM183.781 51.0325C183.601 50.7026 183.354 50.4515 183.039 50.2791C182.724 50.1067 182.357 50.0204 181.937 50.0204C181.472 50.0204 181.06 50.1254 180.7 50.3353C180.341 50.5452 180.059 50.845 179.857 51.2349C179.655 51.6247 179.553 52.0744 179.553 52.5842C179.553 53.1089 179.655 53.5662 179.857 53.956C180.067 54.3458 180.356 54.6457 180.723 54.8556C181.09 55.0655 181.517 55.1704 182.005 55.1704C182.604 55.1704 183.095 55.013 183.478 54.6982C183.86 54.3758 184.111 53.9298 184.231 53.3601H181.532V52.1569H185.783V53.5287C185.678 54.076 185.453 54.582 185.108 55.0467C184.763 55.5115 184.317 55.8863 183.77 56.1712C183.23 56.4486 182.623 56.5872 181.949 56.5872C181.191 56.5872 180.505 56.4186 179.891 56.0812C179.284 55.7364 178.804 55.2604 178.451 54.6532C178.107 54.046 177.934 53.3563 177.934 52.5842C177.934 51.8121 178.107 51.1224 178.451 50.5152C178.804 49.9005 179.284 49.4245 179.891 49.0872C180.505 48.7423 181.188 48.5699 181.937 48.5699C182.822 48.5699 183.59 48.7873 184.242 49.2221C184.895 49.6494 185.344 50.2528 185.592 51.0325H183.781ZM193.02 48.6711V56.5198H191.445V48.6711H193.02ZM200.647 49.9417V51.9095H203.289V53.1577H200.647V55.2379H203.627V56.5198H199.073V48.6599H203.627V49.9417H200.647ZM212.265 56.5985C211.718 56.5985 211.223 56.5048 210.781 56.3174C210.346 56.13 210.001 55.8601 209.746 55.5078C209.491 55.1554 209.36 54.7394 209.353 54.2596H211.039C211.062 54.582 211.174 54.8368 211.377 55.0243C211.587 55.2117 211.872 55.3054 212.231 55.3054C212.599 55.3054 212.887 55.2192 213.097 55.0467C213.307 54.8668 213.412 54.6344 213.412 54.3496C213.412 54.1172 213.341 53.926 213.198 53.7761C213.056 53.6262 212.876 53.51 212.659 53.4275C212.449 53.3376 212.156 53.2401 211.782 53.1352C211.272 52.9853 210.856 52.8391 210.533 52.6966C210.219 52.5467 209.945 52.3256 209.713 52.0332C209.488 51.7334 209.375 51.3361 209.375 50.8413C209.375 50.3765 209.491 49.9717 209.724 49.6269C209.956 49.2821 210.282 49.0197 210.702 48.8398C211.122 48.6524 211.602 48.5587 212.141 48.5587C212.951 48.5587 213.607 48.7573 214.109 49.1546C214.619 49.5444 214.9 50.0917 214.953 50.7963H213.221C213.206 50.5265 213.09 50.3053 212.872 50.1329C212.662 49.953 212.381 49.863 212.029 49.863C211.722 49.863 211.474 49.9417 211.287 50.0992C211.107 50.2566 211.017 50.4852 211.017 50.7851C211.017 50.995 211.084 51.1711 211.219 51.3136C211.362 51.4485 211.534 51.5609 211.737 51.6509C211.947 51.7334 212.239 51.8308 212.614 51.9433C213.123 52.0932 213.539 52.2431 213.862 52.393C214.184 52.543 214.462 52.7679 214.694 53.0677C214.926 53.3676 215.043 53.7611 215.043 54.2484C215.043 54.6682 214.934 55.058 214.716 55.4178C214.499 55.7776 214.18 56.0662 213.761 56.2836C213.341 56.4935 212.842 56.5985 212.265 56.5985Z" fill="#111111"/>
</svg>
